<?xml version="1.0" standalone="no"?>
<!DOCTYPE svg PUBLIC "-//W3C//DTD SVG 20010904//EN"
 "http://www.w3.org/TR/2001/REC-SVG-20010904/DTD/svg10.dtd">
<svg version="1.0" xmlns="http://www.w3.org/2000/svg"
 width="500.000000pt" height="500.000000pt" viewBox="0 0 500.000000 500.000000"
 preserveAspectRatio="xMidYMid meet">
<metadata>
Created by potrace 1.14, written by Peter Selinger 2001-2017
</metadata>
<g transform="translate(0.000000,500.000000) scale(0.100000,-0.100000)"
fill="#000000" stroke="none">
<path d="M0 2500 l0 -2500 2500 0 2500 0 0 2500 0 2500 -2500 0 -2500 0 0
-2500z m2905 2026 c64 -29 129 -102 151 -168 21 -64 15 -158 -15 -215 l-21
-42 58 -103 c32 -57 110 -193 174 -303 63 -110 121 -217 129 -238 13 -36 12
-40 -6 -53 -26 -19 -176 -19 -242 1 -71 21 -111 66 -186 208 -35 69 -97 179
-137 246 -72 120 -74 123 -134 150 -181 82 -232 301 -104 446 58 66 123 95
213 95 52 0 83 -6 120 -24z m640 -255 c56 -26 74 -48 155 -196 40 -71 117
-205 172 -297 104 -174 119 -211 107 -265 -4 -18 -66 -135 -140 -260 -73 -125
-200 -345 -282 -488 -197 -344 -198 -345 -224 -345 -27 0 -83 66 -117 140 -30
64 -35 153 -12 217 8 22 52 101 99 174 76 121 246 417 304 528 13 25 23 56 23
71 0 14 -22 64 -49 110 -26 47 -105 183 -174 304 -141 243 -158 279 -139 298
8 8 52 15 105 19 51 3 101 6 112 7 11 1 38 -7 60 -17z m-1234 -14 c26 -17 84
-105 234 -354 110 -182 253 -418 318 -525 64 -106 117 -203 117 -215 0 -30
-56 -47 -156 -47 -68 0 -90 5 -137 28 -72 35 -108 79 -190 232 -36 66 -103
181 -149 255 -47 74 -103 166 -126 205 -23 39 -56 84 -73 100 l-30 29 -387 -4
c-352 -3 -389 -2 -401 13 -12 15 -6 32 45 134 82 163 66 156 374 162 532 12
523 13 561 -13z m-1070 -454 c24 -11 64 -41 89 -67 l45 -47 360 7 c349 6 361
6 384 -13 l25 -20 -22 -54 c-29 -70 -86 -146 -140 -184 l-44 -30 -286 -5 -287
-5 -46 -45 c-113 -109 -283 -108 -395 4 -132 133 -107 349 53 442 24 15 59 31
76 35 48 12 139 3 188 -18z m3096 -371 c55 -29 111 -86 136 -142 28 -61 28
-168 0 -230 -42 -94 -155 -170 -252 -170 l-39 0 -153 -267 c-186 -327 -226
-391 -249 -403 -29 -15 -64 21 -110 112 -33 66 -40 91 -40 138 0 74 13 109 70
195 26 39 89 144 141 235 l94 165 -3 87 c-3 69 0 96 16 130 35 80 105 143 183
167 53 16 158 7 206 -17z m-2158 -226 c15 -18 6 -55 -30 -127 -38 -77 -68
-110 -131 -144 l-53 -30 -380 -6 c-209 -4 -408 -7 -442 -8 -78 -1 -107 -24
-164 -129 -145 -266 -284 -512 -305 -539 -41 -54 -47 -50 -150 112 -67 106
-61 156 43 325 41 68 126 220 208 375 95 179 59 168 565 175 774 12 826 11
839 -4z m2288 -478 c11 -13 33 -45 49 -73 16 -27 39 -66 52 -85 20 -29 23 -45
20 -91 -4 -50 -14 -74 -90 -200 -47 -79 -127 -218 -176 -309 -63 -115 -102
-174 -127 -195 l-37 -30 -631 -3 c-707 -3 -665 -7 -645 66 28 100 98 190 177
225 44 20 66 21 482 21 398 1 437 3 462 19 34 22 41 34 222 352 195 344 199
350 242 303z m-3105 -45 c70 -103 95 -212 66 -294 -6 -19 -35 -70 -63 -114
-50 -78 -130 -218 -195 -342 -31 -59 -32 -65 -19 -95 8 -18 14 -62 14 -98 0
-118 -76 -228 -183 -264 -181 -62 -365 55 -380 241 -12 150 76 271 222 304
l52 11 183 324 c100 178 191 335 202 349 32 40 63 33 101 -22z m420 -175 c45
-48 86 -126 99 -187 16 -80 -7 -156 -90 -289 -37 -59 -96 -159 -131 -222 -35
-63 -93 -169 -130 -235 -37 -66 -70 -133 -74 -148 -9 -38 8 -74 163 -330 240
-399 243 -407 156 -419 -27 -3 -89 -7 -136 -7 -80 -1 -89 1 -125 28 -21 15
-53 52 -70 82 -17 30 -96 164 -176 299 -80 135 -151 256 -158 269 -31 60 -17
90 290 636 161 286 300 528 308 538 22 25 40 21 74 -15z m585 -680 c61 -29
128 -108 180 -213 83 -166 345 -592 375 -610 26 -15 67 -16 403 -13 461 4 433
14 356 -134 -62 -120 -74 -136 -121 -156 -52 -22 -767 -29 -807 -8 -40 20 -63
50 -118 146 -26 47 -162 279 -301 516 -140 237 -254 441 -254 452 0 51 193 64
287 20z m1738 -179 c101 -52 155 -140 155 -254 0 -85 -24 -142 -83 -203 -120
-123 -338 -102 -432 41 l-17 27 -378 0 c-222 0 -389 4 -404 10 -34 12 -33 38
2 108 35 71 94 138 146 164 39 21 54 22 348 22 l307 1 33 31 c36 35 86 63 133
75 47 13 145 1 190 -22z m-2152 -97 c69 -25 119 -79 178 -195 75 -146 218
-378 238 -384 88 -27 161 -88 195 -162 29 -65 29 -180 -1 -237 -36 -67 -70
-101 -135 -133 -113 -57 -234 -37 -324 53 -85 86 -109 208 -60 312 l24 52 -90
153 c-318 544 -305 516 -267 543 32 22 177 21 242 -2z"/>
<path d="M2720 4402 c-95 -48 -109 -184 -24 -251 57 -45 146 -36 199 19 23 24
29 41 33 87 3 48 0 64 -20 93 -27 40 -79 70 -123 70 -16 0 -46 -8 -65 -18z"/>
<path d="M1046 3671 c-91 -61 -92 -197 -3 -251 39 -24 118 -26 155 -4 50 29
67 63 67 131 0 59 -2 65 -37 100 -33 32 -44 37 -95 40 -45 3 -64 0 -87 -16z"/>
<path d="M4178 3323 c-40 -6 -94 -61 -109 -111 -11 -38 -10 -48 7 -90 28 -68
72 -95 146 -90 44 3 64 10 84 29 56 53 69 120 35 187 -29 56 -94 86 -163 75z"/>
<path d="M810 1871 c-73 -38 -100 -147 -53 -210 51 -68 117 -86 188 -51 110
53 113 207 4 262 -44 23 -96 23 -139 -1z"/>
<path d="M3899 1517 c-119 -79 -67 -267 73 -269 152 -3 213 184 88 270 -45 30
-115 30 -161 -1z"/>
<path d="M2233 824 c-70 -35 -97 -136 -56 -206 57 -98 210 -93 258 9 62 130
-73 260 -202 197z"/>
</g>
</svg>
